<svg xmlns="http://www.w3.org/2000/svg" xml:space="preserve" width="1000" height="600" style="shape-rendering:geometricPrecision;text-rendering:geometricPrecision;image-rendering:optimizeQuality;fill-rule:evenodd;clip-rule:evenodd"><defs><style>.fil0{fill:#0d9488}.fil2{fill:#fefefe}</style></defs><g id="Camada_x0020_1"><path d="M234.05 56.17c-27.98-2.6-71.3 9.15-92.95 19.45-29.1 13.85-37.41 20.71-58.84 39.06-2.61 2.24-4.85 4.19-7.24 6.61-61.04 61.84-86.21 163.73-45 251.77 22.76 48.63 61.4 89.57 111.95 111.54 24.09 10.47 61.88 21.66 92.08 19.23V56.17z" class="fil0"/><path d="M368.16 287.46c2.28-3.33 5.73-5.14 9.05-8.36 2.6-2.51 6.11-5.44 9.47-8.32l37.53-32.7c2.58-2.41 6.64-6.07 9.51-8.29 3.22-2.5 5.88-5.62 9.23-7.62l18.38 20.14-11.47 10.51c-3.53 3.34-8.41 7.28-12.31 10.49l-71.74 62.84c-2.5-1.18-25.69-27.15-29.02-31.41-3.83-4.87-14.16-15.25-16.29-19.21l20.58-17.42 19.76 22.48c1.11 1.27 2.21 2.27 3.37 3.48 2.52 2.61.77 1.67 3.95 3.39zm80.52 52.46c-1.24 25.92-29.18 20.31-52.21 20.31h-74.18c-33.35 0-36.42-2.58-36.42-36.17v-74.18c0-23.42-5.53-50.59 21.56-51.02l109.81.02c13.23 0 21.93-.4 27.56 8.48-2.5 3.49-12.34 11.43-16.1 14.37-1.34-4.76 1.42-2.47-4.39-3.07l-118.08.08.24 121.38h121.88v-56.61c6.34-5.79 13.75-11.72 20.09-17.36l.24 73.77zM264.49 504.06c85.59-1.63 143.76-40.97 183.68-96.63 24.81-34.59 39.89-82.28 39.65-127.87-.65-126.43-100.67-222.73-223.33-223.63v448.13z" style="fill:#2563eb"/><path d="M448.44 266.15c-6.34 5.64-13.75 11.57-20.09 17.36v56.61H306.47l-.24-121.38 118.08-.08c5.81.6 3.05-1.69 4.39 3.07 3.76-2.94 13.6-10.88 16.1-14.37-5.63-8.88-14.33-8.48-27.56-8.48l-109.81-.02c-27.09.43-21.56 27.6-21.56 51.02v74.18c0 33.59 3.07 36.17 36.42 36.17h74.18c23.03 0 50.97 5.61 52.21-20.31l-.24-73.77z" class="fil2"/><path d="M895.5 423.21c1.5 2.71.36.7 1.49 2.71l25.19-.48c4.41-5.79 1.95-34.21 1.95-44.31 8.3-.53 6.59 1.44 9.51 9.05 3.05 7.96 11.47 31.53 14.84 35.75l27.89-.55c2.07-10.61-22.01-53.17-20.12-58.02.49-1.26 3.22-3.73 4.82-5.84 1.18-1.55 2.65-3.74 3.89-6 5.27-9.65 7.92-19.39 8.9-30.64.64-7.24 2.49-13.76-4.76-15.39-6.02-.31-19.45-1.01-24.58.88-3.31 9.5 1.9 36.56-20.39 40.46l-.1-77.97c-1.63-8.83-27.31-3.59-27.4-3.51-3.16 5.06-1.31 64.75-1.31 76.47 0 23.64-1.73 54.65.18 77.39zM601.18 369.73c-5.42-.83-21.25-1.06-26.35.17-2.85 7.24.57 16.99-2.52 24.18-2.6 6.09-10.93 9.54-18.05 4.62-8.27-5.71-5.13-36.16-5.13-48.93 0-10.87-1.98-44.89 2.61-51.44 4.77-6.81 13.98-6.1 18.42-.61 4.87 6.01.04 17.88 4.53 23.18 3.36 2.65 21.8 2.57 25.36.12 2.32-2.13 1.6-5.88 1.55-10.8-.1-11.22-1.25-21.42-8.69-30.29-8.52-10.18-20.1-14.88-39.19-13.4-26.77 6.51-34.89 19.03-34.87 49.62.01 17.34-2.07 70.85 1.46 83.84 9.5 34.95 63.82 38.61 78.29 6.53 3.43-7.62 5.67-29.21 2.58-36.79zM618.75 423.95c3.48 2.85 23.91 3.52 28.03 0 1.91-4.86.77-42.01.77-50.44 0-17.75-3.87-41.48 11-40.84 9.15.4 9.3 8.34 9.26 17.1l-.02 64.3c-.03 3.38-.48 6.48.55 9.17 1.76 4.61 25.87 4.41 27.82-.06.08-.19.2-.46.27-.68.07-.23.13-.5.18-.75l.11-31.43c0-16.07 2.48-53.64-4.32-66.45-5.13-9.66-8.72-10.7-19.02-15.82-13.51-1.68-15.24-.07-25.78 4.21l-.6-43.05c-4.42-1.21-23.55-2.02-26.85.59-3.53 4.13-1.5 30.03-1.5 37.45 0 37.36-.91 80.66.1 116.7zM742.2 353.73c0-10.2-1.06-21.44 10.33-21.68 11.58-.24 10.35 11.58 10.35 21.68l.01.98h-20.68l-.01-.98zm45.91 33.76c-16.08-1.1-24.07-2.85-25.19 4.02-.2 1.2-.12 2.25-.37 3.7-1.48 8.49-9.58 9.7-14.94 6.96-7.75-3.97-5.42-17.63-5.42-28 8.71 0 40.63 1.97 45.92-1.65 1.45-1.72 3.66-35.65-3.97-48.45-6.32-10.6-18.92-17.38-36.33-16.62-19.23 2.86-33.79 14.43-34.41 34.43-.44 14.21-1.92 54.34 2.92 64.83 15.48 33.52 76.88 27.88 71.79-19.22zM803.73 398.23c5.3 21.61 22.23 32.4 44.57 29.43 35.03-4.66 30.63-37.76 32.02-42.83-4.48-2.95-20.93-3.44-26.41-.87-1.91 5.58.99 10.42-3.38 15.36-2.98 3.38-8.45 4.63-13.1 2.05-8.02-4.45-5.12-23.2-5.12-33.79 0-10.73-2.89-29.15 5.29-33.62 5.34-2.93 11.23-.45 13.7 3.09 3.86 5.52-.03 11.42 3.07 16.69 4.34 1.52 20.37 1.08 24.89.21 9.59-59.69-75.1-61.11-75.76-10.12-.23 17.6-.52 36.9.23 54.4zM707.01 222.19c7.89 0 5.63-5.23 5.6-12.85-.03-6.26 0-12.53 0-18.79 0-8.24-3.2-31.7 4.49-33.66 18.95-4.82 3.56 50.67 10.33 65.03l4.31.27c15.03.49 14.8.59 15.15-4.8.86-13.54-3.53-56.69 3.64-60.26 8.26-1.63 10.03 3.04 10.09 10.62l-.04 40.6c-.01 2.56-.31 7.68-.05 9.93.49 4.16 1.57 3.91 5.82 3.91 13.53 0 14.63 1.27 14.63-5.93v-47.47c0-22.88-12.85-32.86-31.45-29.93-8.46 1.34-11.95 7.55-12.25 6.94-.09-.18-.39.31-.6.45-7.05-7.3-18.23-11.16-31.33-4.85-9.38 4.52-13.05 13.64-13.05 26.4v48.46c0 7.19.44 5.93 14.71 5.93z" class="fil0"/><path d="M368.16 287.46c-3.18-1.72-1.43-.78-3.95-3.39-1.16-1.21-2.26-2.21-3.37-3.48l-19.76-22.48-20.58 17.42c2.13 3.96 12.46 14.34 16.29 19.21 3.33 4.26 26.52 30.23 29.02 31.41l71.74-62.84c3.9-3.21 8.78-7.15 12.31-10.49l11.47-10.51-18.38-20.14c-3.35 2-6.01 5.12-9.23 7.62-2.87 2.22-6.93 5.88-9.51 8.29l-37.53 32.7c-3.36 2.88-6.87 5.81-9.47 8.32-3.32 3.22-6.77 5.03-9.05 8.36z" class="fil2"/><path d="M944.89 156.85c14.55-1.78 10.8 11.3 10.8 23.81 0 12.36 3.82 26.61-10.66 24.71-5.49-7.41-3.69-9.68-3.68-23.73 0-15.69-1.89-17.16 3.54-24.79zm-23.84 41.61c1.49 31.94 44.97 31.82 53.41 9.32 2.38-6.33 1.9-36.31 1.52-44.98-.76-17.42-12.58-20.04-20.73-23.75-16.58-1.32-28.21 3.8-32.77 15.78-2.61 6.86-1.51 34.26-1.43 43.63zM539.83 220.28c-.2-7.7-1-37.52.56-43.3l22.18-.46c1.75-2.38 1.64-10.08 1.25-13.7-.84-7.87-5.38-4.83-22.97-4.82-.64-1.06-.59.81-1.03-3.01l.47-24.69 28.13-.28c2.73-3.27 1.92-13.53.77-18.25-6.08-1.58-45.59-1.64-49.37.43-2.09 2.27-.88 69.84-.88 82.3 0 28.63-4.6 27.6 12.05 27.73 10.21.08 8.09.06 8.84-1.95zM827.05 186.16c0 4.07.71 13.2-1.13 16.46-4.77 8.45-19.11-.8-12.34-12.27 2.5-4.23 7.36-4.16 13.47-4.19zm-32.12-39.59c-.04 4.53 2.62 9.74 5.05 13.19 5.7-.33 27.5-16.6 27.01 11.96-11.94-.09-23.36.54-29.41 7.53-5.27 6.06-7.8 18.83-3.94 28.54 6.69 16.83 34.38 21.61 47.72 7.32 7.03-7.53 5.93-17.49 5.93-29.51 0-16.6 4.5-44.23-24.52-46.91-11.3-1.04-21.15 3.69-27.84 7.88zM612.43 186.16c0 4.07.71 13.2-1.12 16.46-2.11 3.73-8.99 4.06-11.87.5-2.33-2.89-2.58-9.2-.47-12.77 2.49-4.23 7.35-4.16 13.46-4.19zm-27.06-26.4c5.64-.33 10.06-6.33 19.39-4.38 7.41 1.54 7.75 8.84 7.62 16.34-11.94-.09-23.36.54-29.42 7.53-5.26 6.06-7.79 18.83-3.93 28.54 6.69 16.83 34.37 21.61 47.72 7.32 7.03-7.53 5.93-17.49 5.93-29.51 0-9.49 1.39-25.01-2.57-32.89-9.12-18.18-32.58-16.93-49.79-6.14-.05 4.53 2.61 9.74 5.05 13.19zM912.01 192.93c-3.29-1.19-14.12-1.97-17.86-.51-1.8 1.32-1.29 5.4-1.7 7.57-1.51 7.85-14.42 10.38-14.44-5.44-.02-7.6.07-15.2.03-22.8-.04-7.05-.65-15.72 7.96-15.26 8.5.44 5.5 9.64 7.58 14.71 2.79.82 5.81.64 9.28.65l5.74-.31c.25-.05.59-.21.78-.26.19-.05.61-.01.74-.32.13-.3.49-.2.71-.34 3.66-8.36-2.04-20.04-6.28-24.32-5.75-5.81-14.57-8.27-25.45-7.37-12.79 4.43-21.13 9.73-21.38 25.86-.17 10.55-1.4 36.81 2.37 44.76 4.75 10.05 19.18 17.31 33.97 12.74 18.96-5.86 16.41-23.03 17.95-29.36zM682.87 150.99c.46-9.58.58-11.01-3.51-12.06-12.49-3.2-35.75 2.29-35.75 29.86v47.47c0 5.19-.27 5.93 5.05 5.93 18.42 0 15.27.17 15.26-16.81 0-8.01-1.41-37.93 1.75-43.31 3.59-6.1 10.5-4.23 16.73-6.05l.47-5.03z" class="fil0"/></g></svg>